<?xml version="1.0" standalone="no"?>
<!DOCTYPE svg PUBLIC "-//W3C//DTD SVG 20010904//EN"
 "http://www.w3.org/TR/2001/REC-SVG-20010904/DTD/svg10.dtd">
<svg version="1.0" xmlns="http://www.w3.org/2000/svg"
 width="387.000000pt" height="418.000000pt" viewBox="0 0 387.000000 418.000000"
 preserveAspectRatio="xMidYMid meet">

<g transform="translate(0.000000,418.000000) scale(0.100000,-0.100000)"
fill="#000000" stroke="none">
<path d="M270 4153 c-86 -30 -178 -110 -218 -190 -55 -107 -52 -2 -52 -1872 0
-1127 4 -1741 11 -1770 24 -106 102 -212 193 -266 99 -58 19 -56 1757 -53
1494 3 1597 4 1639 21 106 41 203 144 242 257 l23 65 0 1750 0 1750 -23 56
c-50 124 -131 208 -237 248 -56 21 -61 21 -1673 21 -1444 -1 -1622 -3 -1662
-17z m1711 -990 l0 -418 25 88 c102 373 371 626 764 719 69 16 132 21 338 25
l252 5 0 -275 0 -275 -267 -4 c-238 -4 -277 -7 -348 -27 -244 -68 -418 -194
-552 -398 -86 -131 -160 -322 -179 -463 l-7 -50 677 0 676 0 0 -250 0 -250
-690 0 -690 0 0 -540 0 -540 -260 0 -260 0 0 540 0 540 -475 0 -475 0 0 250 0
250 473 2 472 3 3 478 2 477 -475 0 -475 0 0 265 0 265 735 0 735 0 1 -417z"/>
</g>
</svg>
